# xmcd CD database file
#
# Track frame offsets:
#	182
#	29910
#	41760
#	90380
#	138827
#	176602
#	189695
#	216570
#	230315
#	267267
#	275542
#
# Disc length: 4228 seconds
#
# Revision: 0
# Processed by: cddbd v1.4PL0 Copyright (c) Steve Scherf et al.
# Submitted via: CDex 1.50
#
DISCID=a410820b
DTITLE=Barry Guy - Fizzles
DYEAR=1991
DGENRE=Jazz
TTITLE0=Free Fall
TTITLE1=Fil Rouge
TTITLE2=Hilibili meets... The Brush
TTITLE3=Five Fizzles
TTITLE4=Invention - The Bird of Infinity
TTITLE5=Afar
TTITLE6=But the Clouds...
TTITLE7=Tout Rouge
TTITLE8=Still
TTITLE9=Toujours Rouge
TTITLE10=She took the sacred rattle and used it
EXTD=YEAR: 1991
EXTT0=
EXTT1=
EXTT2=
EXTT3=
EXTT4=
EXTT5=
EXTT6=
EXTT7=
EXTT8=
EXTT9=
EXTT10=
PLAYORDER=
